<?xml version="1.0" encoding="iso-8859-1"?>
<!DOCTYPE svg PUBLIC "-//W3C//DTD SVG 20010904//EN"
 "http://www.w3.org/TR/2001/REC-SVG-20010904/DTD/svg10.dtd">
<svg version="1.0" xmlns="http://www.w3.org/2000/svg"
 width="800.000000pt" height="700.000000pt" viewBox="0 0 800.000000 700.000000"
 preserveAspectRatio="xMidYMid meet">

<g transform="translate(0.000000,700.000000) scale(0.100000,-0.100000)"
fill="#000000" stroke="none">
<path d="M0 3500 l0 -3500 4000 0 4000 0 0 3500 0 3500 -4000 0 -4000 0 0
-3500z m5595 2366 c51 -23 93 -64 120 -116 l14 -27 52 17 c124 42 262 -12 318
-126 37 -73 38 -135 6 -239 -5 -16 2 -24 31 -40 84 -45 143 -159 130 -252 -10
-72 -41 -130 -108 -199 -58 -61 -61 -66 -43 -76 41 -22 111 -104 123 -144 18
-63 15 -152 -9 -204 -15 -34 -139 -165 -512 -538 l-492 -493 -155 -82 c-154
-81 -311 -181 -380 -239 -19 -16 -402 -397 -852 -846 l-816 -815 34 -36 c27
-28 34 -44 34 -75 0 -38 -7 -47 -138 -176 -137 -137 -165 -157 -205 -146 -12
3 -289 272 -614 598 -571 571 -593 595 -593 631 0 34 11 48 143 182 129 132
145 145 177 145 26 0 43 -9 72 -37 l38 -38 860 860 859 860 2 120 c2 179 16
393 29 450 7 28 30 88 52 135 39 83 49 93 347 393 168 169 324 318 346 331 93
54 215 58 311 11 59 -29 127 -99 146 -151 7 -19 15 -34 18 -34 3 0 84 79 180
176 96 96 188 185 204 196 73 53 187 63 271 24z m-3095 -1474 c15 -12 34 -45
49 -85 l23 -67 65 0 c77 0 115 -17 137 -64 31 -66 14 -110 -64 -166 -32 -23
-47 -40 -44 -50 3 -8 12 -40 21 -71 14 -52 14 -59 -2 -92 -38 -81 -111 -93
-199 -32 l-56 38 -57 -39 c-67 -46 -112 -50 -161 -16 -49 36 -60 85 -33 163
11 34 20 63 18 64 -119 75 -150 132 -112 205 21 41 49 54 129 60 l69 5 26 65
c42 104 117 137 191 82z m2456 -1881 c23 -14 38 -36 53 -76 12 -30 21 -60 21
-65 0 -6 25 -10 55 -10 95 0 151 -36 162 -104 8 -51 -12 -91 -68 -131 -54 -39
-56 -44 -34 -105 19 -54 19 -83 0 -120 -18 -35 -62 -60 -105 -60 -36 0 -60 11
-110 50 l-35 28 -55 -39 c-74 -53 -127 -54 -176 -5 -39 39 -45 84 -19 156 8
23 15 46 15 49 0 4 -23 25 -51 46 -84 64 -98 135 -37 195 28 28 54 36 147 42
32 3 36 7 53 57 19 58 41 88 73 102 34 14 79 10 111 -10z"/>
<path d="M5425 5711 c-16 -10 -255 -244 -529 -519 l-499 -500 21 -54 c33 -84
44 -137 44 -214 -1 -87 -14 -141 -54 -215 -41 -78 -79 -113 -123 -113 -73 0
-102 81 -50 142 87 103 86 272 -2 402 -48 71 -50 67 252 370 175 175 280 288
289 311 26 62 2 139 -55 182 -37 27 -108 33 -151 13 -19 -9 -167 -150 -330
-314 -383 -385 -372 -364 -383 -762 -4 -129 -10 -253 -15 -274 -7 -31 -29 -59
-100 -131 l-92 -93 31 -64 c17 -35 34 -81 38 -103 8 -54 16 -62 71 -70 188
-28 322 -243 267 -431 -51 -177 -181 -289 -398 -341 -86 -21 -291 -23 -382 -4
-117 24 -244 64 -258 80 -13 16 -49 124 -62 189 -4 17 -10 32 -13 32 -4 0
-151 -144 -327 -320 l-320 -321 25 -20 c116 -92 253 -118 353 -67 23 11 76 50
117 85 162 139 304 187 436 148 91 -27 159 -104 187 -215 13 -49 17 -55 38
-52 137 16 256 12 320 -13 12 -5 45 22 118 95 56 56 101 105 101 111 0 14 -83
11 -121 -5 -39 -15 -55 -12 -69 15 -14 26 2 54 43 76 44 23 152 23 194 0 l32
-17 181 179 c99 99 180 186 180 193 0 7 -23 36 -51 63 -66 65 -72 77 -53 103
24 35 52 26 119 -39 l64 -61 77 61 c114 92 202 149 374 241 l155 83 473 471
c260 259 480 483 488 498 38 72 -7 148 -87 148 -42 0 -46 -3 -234 -190 -169
-167 -195 -190 -224 -190 -43 0 -81 38 -81 82 0 30 28 61 311 343 170 171 317
322 325 337 18 35 18 88 -1 114 -20 29 -69 48 -102 39 -18 -4 -133 -111 -333
-309 -168 -167 -318 -313 -334 -324 -38 -29 -71 -28 -101 3 -18 17 -25 35 -25
62 0 36 15 52 384 423 270 270 387 394 392 414 16 66 -65 140 -127 117 -12 -4
-191 -177 -398 -384 -207 -207 -389 -380 -403 -386 -33 -13 -84 3 -98 29 -6
10 -10 33 -10 51 0 30 31 64 325 359 l325 326 0 43 c0 84 -83 128 -155 82z"/>
<path d="M3296 3591 l-268 -268 7 -44 c9 -58 45 -192 54 -202 19 -20 214 -58
326 -64 330 -16 555 126 555 350 0 152 -111 257 -271 257 -28 0 -51 6 -58 14
-7 8 -13 45 -14 83 -3 67 -27 131 -52 140 -6 2 -131 -118 -279 -266z"/>
<path d="M3072 2644 c-82 -22 -138 -55 -227 -134 -22 -20 -50 -43 -62 -51 -22
-15 -22 -17 -8 -85 18 -87 19 -160 0 -247 -15 -73 -63 -178 -98 -218 -55 -61
-59 -49 51 -163 55 -58 118 -121 140 -141 l40 -36 79 81 79 81 -19 72 c-22 85
-17 193 14 291 34 113 137 246 230 298 45 25 50 53 24 129 -37 106 -130 154
-243 123z"/>
<path d="M2156 2451 l-68 -69 233 -231 234 -230 33 32 c18 17 47 60 64 95 27
55 32 76 36 165 2 56 0 118 -5 137 l-9 34 -105 1 c-123 0 -182 20 -279 91 -33
24 -61 44 -63 44 -1 0 -33 -31 -71 -69z"/>
<path d="M3481 2374 c-166 -45 -303 -183 -340 -345 -12 -49 -13 -161 -2 -197
6 -22 33 3 284 253 152 152 277 280 277 284 0 24 -139 27 -219 5z"/>
<path d="M1798 2307 l-67 -63 518 -518 518 -518 65 65 65 65 -516 516 -517
516 -66 -63z"/>
<path d="M2401 4287 c-38 -120 -61 -137 -185 -137 -47 0 -86 -3 -86 -7 1 -5
32 -30 70 -58 100 -72 106 -94 65 -215 -14 -40 -25 -75 -25 -77 0 -7 38 16 82
50 24 18 58 39 77 45 41 14 81 -1 159 -59 29 -23 55 -39 57 -37 2 2 -7 35 -21
73 -26 77 -30 115 -12 148 15 28 21 34 93 88 l60 44 -95 5 c-134 7 -146 17
-185 148 -10 34 -21 62 -25 62 -3 0 -17 -33 -29 -73z"/>
<path d="M4887 2470 c-3 -8 -13 -40 -22 -70 -21 -66 -49 -115 -73 -126 -9 -4
-59 -10 -110 -13 l-93 -6 60 -43 c110 -81 120 -104 85 -213 -13 -41 -24 -80
-24 -87 0 -7 30 10 66 38 37 27 74 51 83 51 57 5 81 -4 150 -52 53 -37 72 -46
69 -33 -3 11 -16 53 -28 95 -22 72 -22 76 -6 111 11 22 43 54 88 87 l71 51
-87 0 c-133 0 -154 15 -196 143 -15 45 -30 75 -33 67z"/>
</g>
</svg>
